<?xml version="1.0" encoding="utf-8"?>
<!-- Generator: Adobe Illustrator 18.1.1, SVG Export Plug-In . SVG Version: 6.00 Build 0)  -->
<svg version="1.1" id="Layer_1" xmlns="http://www.w3.org/2000/svg" xmlns:xlink="http://www.w3.org/1999/xlink" x="0px" y="0px"
	 viewBox="0 0 306.1 129.1" enable-background="new 0 0 306.1 129.1" xml:space="preserve">
<path fill="#3C3C3B" d="M63.9,110.7H58v-5.9H43v23.6h-5.8V98.9H58c3.1,0,5,1.3,5.7,4c0.1,0.6,0.2,1.2,0.2,1.9V110.7z"/>
<path fill="#3C3C3B" d="M95.7,128.4H73.4c-3.1,0-5-1.3-5.6-3.9c-0.1-0.6-0.2-1.3-0.2-2v-17.7c0-1.5,0.5-2.9,1.6-4.1
	c1.1-1.2,2.5-1.8,4.2-1.8h22.3v5.9H73.4v17.7h22.3V128.4z"/>
<path fill="#3C3C3B" d="M141.7,128.4h-5.9v-23.6h-11.6v23.6h-5.8v-23.6h-11.7v23.6h-5.8V98.9h34.9c3.1,0,5,1.3,5.7,4
	c0.1,0.6,0.2,1.2,0.2,1.9V128.4z"/>
<path fill="#3C3C3B" d="M174.4,122.5c0,1.7-0.5,3-1.5,4.1c-1.1,1.2-2.5,1.8-4.3,1.8h-20.9v-5.9h20.9v-5.9h-15.5
	c-1.5,0-2.7-0.4-3.7-1.2c-1-0.8-1.7-1.8-2-3.1c-0.1-0.5-0.2-1-0.2-1.6v-5.9c0-1.5,0.6-2.9,1.7-4.1c1.1-1.2,2.5-1.8,4.2-1.8h19.3v5.9
	h-19.3v5.9h15.5c1.7,0,3.1,0.6,4.2,1.7c1.1,1.1,1.7,2.5,1.7,4.2V122.5z"/>
<g>
	<g>
		<defs>
			<rect id="SVGID_3_" x="0" y="0" width="174.6" height="91.5"/>
		</defs>
		<clipPath id="SVGID_1_">
			<use xlink:href="#SVGID_3_"  overflow="visible"/>
		</clipPath>
		<path clip-path="url(#SVGID_1_)" fill="#C0D009" d="M63.6,48V22.7L41.8,35.3c-2.6,1.5-4.7,5.2-4.7,8.2v25.3l21.8-12.6
			C61.5,54.7,63.6,51,63.6,48"/>
		<path clip-path="url(#SVGID_1_)" fill="#0992D1" d="M115.8,35.3l21.8-12.6v-0.5c0-3-2.1-6.7-4.7-8.2L110.6,1.1
			c-2.6-1.5-6.9-1.5-9.5,0L78.8,14c-2.6,1.5-4.7,5.2-4.7,8.2v0.5l21.8,12.6c2.6,1.5,4.7,5.2,4.7,8.2v25.3l0.5,0.3
			c2.6,1.5,6.9,1.5,9.5,0l0.5-0.3V43.5C111,40.5,113.2,36.8,115.8,35.3"/>
		<path clip-path="url(#SVGID_1_)" fill="#168D38" d="M95.9,35.3L74,22.7V48c0,3,2.1,6.7,4.7,8.2l21.8,12.6V43.5
			C100.6,40.5,98.5,36.8,95.9,35.3"/>
		<path clip-path="url(#SVGID_1_)" fill="#D11317" d="M169.9,35.3l-22.3-12.9c-2.6-1.5-6.9-1.5-9.5,0l-0.5,0.3V48
			c0,3-2.1,6.7-4.7,8.2l-21.8,12.6v0.5c0,3,2.1,6.7,4.7,8.2l22.3,12.9c2.6,1.5,6.9,1.5,9.5,0l22.3-12.9c2.6-1.5,4.7-5.2,4.7-8.2
			V43.5C174.6,40.5,172.5,36.8,169.9,35.3"/>
		<path clip-path="url(#SVGID_1_)" fill="#59205B" d="M137.6,48V22.7l-21.8,12.6c-2.6,1.5-4.7,5.2-4.7,8.2v25.3l21.8-12.6
			C135.5,54.7,137.6,51,137.6,48"/>
		<path clip-path="url(#SVGID_1_)" fill="#FDEA14" d="M41.8,35.3l21.8-12.6v-0.5c0-3-2.1-6.7-4.7-8.2L36.5,1.1
			c-2.6-1.5-6.9-1.5-9.5,0L4.7,14C2.1,15.5,0,19.2,0,22.2V48c0,3,2.1,6.7,4.7,8.2L27,69.1c2.6,1.5,6.9,1.5,9.5,0l0.5-0.3V43.5
			C37,40.5,39.2,36.8,41.8,35.3"/>
		<path clip-path="url(#SVGID_1_)" fill="#75B62D" d="M74,48V22.7l-0.5-0.3c-2.6-1.5-6.9-1.5-9.5,0l-0.5,0.3V48c0,3-2.1,6.7-4.7,8.2
			L37,68.8v0.5c0,3,2.1,6.7,4.7,8.2l22.3,12.9c2.6,1.5,6.9,1.5,9.5,0l22.3-12.9c2.6-1.5,4.7-5.2,4.7-8.2v-0.5L78.8,56.2
			C76.2,54.7,74,51,74,48"/>
	</g>
</g>
<path fill="#42B8EA" d="M222,100c-2.4-1.2-5.1-1.8-8-1.8c-1.5,0-3,0.2-4.4,0.5c-1.4,0.4-2.7,0.9-3.9,1.5c-1.2,0.7-2.3,1.6-3.4,2.8
	c-1.1,1.2-2,2.7-2.6,4.5c-0.3,0.8-0.5,1.6-0.7,2.5h-15v-4.1l14.2,0c2.7-5.7,5.8-6.9,5.8-6.9l0,0h-29.4v29.4H204c0,0-4.1-2.5-5.8-6.9
	l-0.1-0.2v0H184v-4.6h13.9h1c0.5,3.3,1.8,6,4,8.2c2.8,2.8,6.6,4.2,11.3,4.2c3.3,0,6.2-0.7,8.5-2.2c2.3-1.5,4-3.4,5.2-5.7
	c1.1-2.3,1.7-5,1.7-7.9c0-3-0.6-5.7-1.9-8C226.3,103,224.4,101.2,222,100z M209.1,123.3v-20l15.1,10L209.1,123.3z"/>
<path fill="#42B8EA" d="M296.7,109.3l-3.8-0.9c-1.7-0.4-2.8-0.8-3.3-1.2c-0.3-0.3-0.5-0.7-0.5-1.1c0-0.5,0.2-1,0.6-1.3
	c0.6-0.4,1.4-0.7,2.5-0.7h13.1l0.1-6.7h-13.2c-1.5,0-3,0.2-4.5,0.5c-1.5,0.3-2.8,0.9-4,1.7c-1.2,0.8-2.1,1.8-2.8,3.1
	c-0.7,1.3-1.1,2.7-1.1,4.4c0,1.7,0.4,3.1,1.2,4.3c0.8,1.2,1.9,2.1,3.5,2.9c1.5,0.7,3.2,1.3,4.9,1.7l3.4,0.8c1.7,0.4,2.8,0.8,3.2,1.2
	c0.4,0.4,0.6,0.8,0.6,1.4c0,0.6-0.2,1-0.6,1.4c-0.6,0.4-1.5,0.6-2.8,0.6h-13.7l-8-22.4h-9.8l-7.8,21.7H241V98.9h-9.6v29.4h19.9h2.9
	h6.5l1.1-3.9l1.8-6l3-10.7l3.1,10.7l1.7,6l1.1,3.9h5.1h4.5H293c1.9,0,3.6-0.2,5.3-0.7c1.7-0.5,3-1.1,4.1-1.8
	c1.1-0.8,1.9-1.8,2.7-3.2c0.7-1.3,1.1-2.8,1.1-4.4c0-2-0.7-3.8-2.1-5.4C302.6,111.4,300.2,110.2,296.7,109.3z"/>
</svg>
