<?xml version="1.0" encoding="utf-8"?>
<!-- Generator: Adobe Illustrator 18.1.1, SVG Export Plug-In . SVG Version: 6.00 Build 0)  -->
<svg version="1.1" id="Layer_1" xmlns="http://www.w3.org/2000/svg" xmlns:xlink="http://www.w3.org/1999/xlink" x="0px" y="0px"
	 viewBox="0 0 34 32" style="enable-background:new 0 0 34 32;" xml:space="preserve">
<g>
	<path style="fill:#ffffff;" d="M34,16l-4.8,4.9L24.5,16h2.7c0-6.5-5.1-11.7-11.5-11.7V0c8.6,0,15.7,7.2,15.7,16H34z"/>
	<path style="fill:#ffffff;" d="M6.5,0L13,1.8l-1.7,6.7L9.9,6.1c-5.5,3.2-7.4,10.4-4.2,16l-3.6,2.1C-2.2,16.6,0.3,6.8,7.8,2.4L6.5,0z"
		/>
	<path style="fill:#ffffff;" d="M6.5,32l-1.7-6.7l6.5-1.8l-1.3,2.3c5.5,3.2,12.5,1.3,15.7-4.3l3.6,2.1C24.9,31.4,15.3,34,7.8,29.6
		L6.5,32z"/>
</g>
</svg>
