<?xml version="1.0" encoding="utf-8"?>
<!-- Generator: Adobe Illustrator 18.1.1, SVG Export Plug-In . SVG Version: 6.00 Build 0)  -->
<!DOCTYPE svg PUBLIC "-//W3C//DTD SVG 1.1//EN" "http://www.w3.org/Graphics/SVG/1.1/DTD/svg11.dtd">
<svg version="1.1" id="Layer_1" xmlns="http://www.w3.org/2000/svg" xmlns:xlink="http://www.w3.org/1999/xlink" x="0px" y="0px"
	 viewBox="0 0 63.9 64" style="enable-background:new 0 0 63.9 64;" xml:space="preserve">
<style type="text/css">
	.st0{fill:#CCCCCC;}
	.st1{fill:#F5F5F5;}
</style>
<g>
	<rect x="0" y="0" class="st0" width="63.9" height="64"/>
	<g>
		<path class="st1" d="M29.9,18c6.6,0,12,5.4,12,12s-5.4,12-12,12s-12-5.4-12-12S23.3,18,29.9,18L29.9,18z M29.9,14
			c-8.8,0-16,7.2-16,16s7.2,16,16,16s16-7.2,16-16S38.8,14,29.9,14L29.9,14z"/>
		
			<rect x="39.4" y="43.6" transform="matrix(0.7063 0.7079 -0.7079 0.7063 45.6936 -18.8616)" class="st1" width="12.3" height="4"/>
	</g>
</g>
</svg>
