<!-- Generator: Adobe Illustrator 18.1.1, SVG Export Plug-In  -->
<svg version="1.1"
   xmlns="http://www.w3.org/2000/svg" xmlns:xlink="http://www.w3.org/1999/xlink" xmlns:a="http://ns.adobe.com/AdobeSVGViewerExtensions/3.0/"
   x="0px" y="0px" width="65px" height="51.2px" viewBox="0 0 65 51.2" style="enable-background:new 0 0 65 51.2;"
   xml:space="preserve">
<style type="text/css">
  .st0{fill:#F2F2F2;}
</style>
<defs>
</defs>
<path class="st0" d="M65,1.5c-0.1,0-64.4,0.1-64.5,0.1C0.4,1.7-0.2,1.8,0.1,2.3c0.3,0.4,0.2,0.9,0.7,1.8c0.5,1,3.3,3.6,4.1,4.3
  c0.9,0.7,5.9,7.3,6.7,8.4c0.8,1.1,3.1,6.5,5.1,9.8c2,3.3,6.4,5.3,7,5.8c0.6,0.5,4,2.6,5.1,3.4c1.1,0.8,1.2,2.7,5.6,4.8
  c4.4,2.1,7.7,0.6,8.1,0.8c0.4,0.2,0.9,1.3,0.9,2.1c0,0.8,0.7,1,1,0.9c0.2-0.1,0.8,0,0.8,0s0.3,0,0.5,0.4c0.2,0.4,0.9,0.1,1.2-0.2
  c0,0,0,0,0.1,0c0.8-0.1,2.1-0.5,2.1-0.5s3.9,2.5,4.5,2.9c0.6,0.4,2.6,1.4,4.4,2.6c0.1,0,0.1,0.1,0.2,0.1c0.3,0.2,0.8,0.5,1.2,0.8
  c0,0,0.1,0,0.1,0.1c0,0,0.1,0.1,0.2,0.1c0.2,0.1,0.3,0.2,0.4,0.2c0.4,0.2,0.7,0.4,0.9,0.4c0.2,0,4,0,4.2,0"/>
<path class="st0" d="M1.4,1.5"/>
<g>
  <path d="M63.9,49.7c-0.7-0.7-1.2-1.1-1.8-1.7c-0.6-0.6-2.4-1.9-3-2.5c-0.7-0.5-2.2-2.2-2.8-2.5c-1.4-0.8-3.2-2.3-4.1-3
    c0.1-0.1,0.1-0.3,0.1-0.4c0.2-0.6,0-1.6,0-1.6s0-1.2-1.1-2.2c-1.1-1-3.4-0.5-3.4-0.5s-0.6,0.1-1.3,0.1c-0.4-0.4-0.7-0.6-0.9-0.8
    c-0.3-0.2-1.2-0.4-2.3-0.7c-2-1.3-7.9-5.4-9.7-6.1c-0.4-0.2-0.6-0.4-1.7-2.7c-1.2-2.3-4.2-3.3-4.7-3.3c-0.5-0.1-3.3-1.8-4.1-2.2
    c-0.7-0.5-4.4-3.5-5.3-5.2c-0.9-1.8-1.9-3.1-3.1-4.4c-1.3-1.3-4.8-3.4-6-4.4c-1.2-1-0.1-1.3-0.6-2.2c-0.5-0.9-2.2-0.8-2.8-1
    c-0.6-0.1-1.2-0.7-1.3-1C3.8,1.1,3.3,0.9,3.1,0.7C3,0.5,2.4,0.4,2.3,0.1c-0.1-0.3-0.6,0-0.9,0.1C1.2,0.3,0.6,0.4,0.9,0.8
    c0.3,0.4,0.2,0.9,0.7,1.8c0.5,1,3.3,3.6,4.1,4.3c0.9,0.7,5.9,7.3,6.7,8.4c0.8,1.1,3.1,6.5,5.1,9.8c2,3.3,6.4,5.3,7,5.8
    c0.6,0.5,4,2.6,5.1,3.4c1.1,0.8,1.2,2.7,5.6,4.8c4.4,2.1,7.7,0.6,8.1,0.8c0.4,0.2,0.9,1.3,0.9,2.1c0,0.8,0.7,1,1,0.9
    c0.2-0.1,0.8,0,0.8,0s0.3,0,0.5,0.4c0.2,0.4,0.9,0.1,1.2-0.2c0,0,0,0,0.1,0c0.8-0.1,2.1-0.5,2.1-0.5s3.9,2.5,4.5,2.9
    c0.6,0.4,2.6,1.4,4.4,2.6c0.1,0,0.1,0.1,0.2,0.1c0.3,0.2,0.8,0.5,1.2,0.8c0,0,0.1,0,0.1,0.1c0,0,0.1,0.1,0.2,0.1
    c0.2,0.1,0.3,0.2,0.4,0.2c0.4,0.2,0.7,0.5,0.9,0.5c0.2,0,0.4,0,0.6,0c0.1,0.1,0.3,0.2,0.4,0.2c0.9,0.6,2.3,1.2,2.3,1
    C65.1,50.9,64.4,50.2,63.9,49.7z"/>
</g>
<g>
  <path d="M63.9,49.7c-0.7-0.7-1.2-1.1-1.8-1.7c-0.6-0.6-2.4-1.9-3-2.5c-0.7-0.5-2.2-2.2-2.8-2.5c-1.4-0.8-3.2-2.3-4.1-3
    c0.1-0.1,0.1-0.3,0.1-0.4c0.2-0.6,0-1.6,0-1.6s0-1.2-1.1-2.2c-1.1-1-3.4-0.5-3.4-0.5s-0.6,0.1-1.3,0.1c-0.4-0.4-0.7-0.6-0.9-0.8
    c-0.3-0.2-1.2-0.4-2.3-0.7c-2-1.3-7.9-5.4-9.7-6.1c-0.4-0.2-0.6-0.4-1.7-2.7c-1.2-2.3-4.2-3.3-4.7-3.3c-0.5-0.1-3.3-1.8-4.1-2.2
    c-0.7-0.5-4.4-3.5-5.3-5.2c-0.9-1.8-1.9-3.1-3.1-4.4c-1.3-1.3-4.8-3.4-6-4.4c-1.2-1-0.1-1.3-0.6-2.2c-0.5-0.9-2.2-0.8-2.8-1
    c-0.6-0.1-1.2-0.7-1.3-1C3.8,1.1,3.3,0.9,3.1,0.7C3,0.5,2.4,0.4,2.3,0.1c-0.1-0.3-0.6,0-0.9,0.1C1.2,0.3,0.6,0.4,0.9,0.8
    c0.3,0.4,0.2,0.9,0.7,1.8c0.5,1,3.3,3.6,4.1,4.3c0.9,0.7,5.9,7.3,6.7,8.4c0.8,1.1,3.1,6.5,5.1,9.8c2,3.3,6.4,5.3,7,5.8
    c0.6,0.5,4,2.6,5.1,3.4c1.1,0.8,1.2,2.7,5.6,4.8c4.4,2.1,7.7,0.6,8.1,0.8c0.4,0.2,0.9,1.3,0.9,2.1c0,0.8,0.7,1,1,0.9
    c0.2-0.1,0.8,0,0.8,0s0.3,0,0.5,0.4c0.2,0.4,0.9,0.1,1.2-0.2c0,0,0,0,0.1,0c0.8-0.1,2.1-0.5,2.1-0.5s3.9,2.5,4.5,2.9
    c0.6,0.4,2.6,1.4,4.4,2.6c0.1,0,0.1,0.1,0.2,0.1c0.3,0.2,0.8,0.5,1.2,0.8c0,0,0.1,0,0.1,0.1c0,0,0.1,0.1,0.2,0.1
    c0.2,0.1,0.3,0.2,0.4,0.2c0.4,0.2,0.7,0.5,0.9,0.5c0.2,0,0.4,0,0.6,0c0.1,0.1,0.3,0.2,0.4,0.2c0.9,0.6,2.3,1.2,2.3,1
    C65.1,50.9,64.4,50.2,63.9,49.7z"/>
</g>
</svg>
